<?xml version="1.0" encoding="utf-8"?>
<!-- Generator: Adobe Illustrator 22.0.1, SVG Export Plug-In . SVG Version: 6.00 Build 0)  -->
<svg version="1.1" id="Слой_1" xmlns="http://www.w3.org/2000/svg" xmlns:xlink="http://www.w3.org/1999/xlink" x="0px" y="0px"
	 viewBox="0 0 364 170" style="enable-background:new 0 0 364 170;" xml:space="preserve">
<style type="text/css">
	.st0{fill:#FFFFFF;}
</style>
<g>
	<path class="st0" d="M29.5,1.2v5.5H8.7v10.5h19.2v5.5H8.7v15.3H2.9V1.2H29.5z M65.2,19.6c0-8-5.7-13.4-13.2-13.4
		c-7.4,0-13.2,5.6-13.2,13.5c0,8,5.9,13.4,13.2,13.4S65.2,27.6,65.2,19.6 M71.3,19.6c0.2,10.4-8.7,19.2-19.2,19
		c-10.5,0.2-19.4-8.6-19.2-19c-0.2-10.3,8.7-19.2,19.2-19C62.6,0.5,71.5,9.3,71.3,19.6 M94.8,17.3c4,0,6.3-1.9,6.3-5.3
		s-2.3-5.3-6.3-5.3H83.5v10.5H94.8L94.8,17.3z M100.3,38.1c-0.5-0.9-0.8-1.9-1-3.1c-0.2-1.2-0.3-2.9-0.3-5.4c0-5.1-2.3-6.8-6.6-6.8
		h-9v15.3h-5.8V1.2h17.6c7.4,0,11.8,4.4,11.8,10c0,4.7-2.7,8.1-7.4,9.7c3.6,1.4,5.6,4.1,5.8,8.7c0.1,2.2,0.3,3.7,0.4,4.8
		c0.2,1,0.7,1.9,1.4,2.7v0.8L100.3,38.1L100.3,38.1z M9.1,54.6c0,3.4,3.7,5,9.4,6.1c8.5,1.6,12.7,4.9,12.7,10.8
		c0,6.3-5.8,11.1-14.4,11.1c-3.5,0-6.8-0.8-9.9-2.5c-3.1-1.7-5.2-4.6-6.5-8.8l5.5-3.4c1.3,5.9,5.3,9.2,11,9.2c5,0,8.3-2.2,8.3-5.3
		c0-2.9-2.4-4.7-8.7-5.8C8,64.4,3.3,61.1,3.3,54.6c0-5.4,5.2-10.1,12.9-10.1c6.2,0,11.4,3.3,13.4,9l-5.5,3.2c-1-4.2-3.8-6.6-8.4-6.6
		C11.6,50.1,9.1,52,9.1,54.6 M67.3,63.5c0-8-5.7-13.4-13.2-13.4c-7.4,0-13.2,5.6-13.2,13.5c0,8,5.9,13.4,13.2,13.4
		C61.4,76.9,67.3,71.5,67.3,63.5 M73.4,63.5c0.2,10.4-8.7,19.2-19.2,19c-10.5,0.2-19.4-8.6-19.2-19c-0.2-10.3,8.7-19.2,19.2-19
		C64.7,44.3,73.6,53.2,73.4,63.5 M116.1,81.9V48.3l-10.8,33.7h-9L85.6,48.3v33.7h-5.8V45.1h10.8l10.3,32.4l10.3-32.4h10.8v36.9
		L116.1,81.9z M157.1,45.1v5.5h-21.1v9.5h19.5v5.5h-19.5v10.8h21.6v5.5h-27.4V45.1L157.1,45.1z M193.9,50.6h-13.4v31.3h-5.8V50.6
		h-13.4v-5.5h32.6L193.9,50.6z M204.2,66.4v15.5h-5.8V45.1h5.8v16.1h20V45.1h5.8v36.9h-5.8V66.4H204.2z M238.3,81.9h5.8V45.1h-5.8
		V81.9z M258.2,81.9h-5.8V45.1h10.1l17.2,32.7V45.1h5.8v36.9h-10.1l-17.2-32.6L258.2,81.9z M291.9,63.5c-0.2-10.6,8.1-19.2,18.4-19
		c4.8,0,8.7,1.2,11.7,3.6c3.1,2.4,5.1,5.5,6.1,9.3l-5.8,1.8c-1.3-6.2-5.6-9.2-11.9-9.2c-6.9,0-12.5,5.4-12.5,13.4
		c0,7.8,5.5,13.4,12.6,13.4c6.5,0,10-4.9,10.7-9h-16v-5.5h23.1v19.5h-5v-7.8c-2.6,5.6-7.1,8.4-13.4,8.4
		C299.7,82.6,291.7,74.4,291.9,63.5 M20,121.1c3.8,0,6.9-1.1,9.2-3.3c2.3-2.2,3.7-4.9,4.3-8.3l5.3,2.1c-1.9,8.5-8.6,14.7-18.7,14.7
		c-11.1,0.2-18.8-8.3-18.7-19C1.1,96.8,9.5,88.2,20,88.4c9.4,0,14.9,5.7,16.6,12.4l-5.3,2.4c-1.1-5.5-5.1-9.5-11.3-9.5
		c-7.2,0-12.6,5.4-12.6,13.7C7.4,116,12.5,121.1,20,121.1 M74.8,107.4c0-8-5.7-13.4-13.2-13.4c-7.4,0-13.2,5.6-13.2,13.5
		c0,8,5.9,13.4,13.2,13.4C68.9,120.8,74.8,115.3,74.8,107.4 M80.9,107.4c0.2,10.4-8.7,19.2-19.2,19c-10.5,0.2-19.4-8.6-19.2-19
		c-0.2-10.3,8.7-19.2,19.2-19C72.2,88.2,81.1,97.1,80.9,107.4 M123.6,125.8V92.2l-10.8,33.7h-8.9L93.1,92.2v33.7h-5.8V89h10.8
		l10.3,32.4L118.6,89h10.8v36.9L123.6,125.8z M154.4,105.6c3.7,0,6.3-2.2,6.3-5.5s-2.6-5.5-6.3-5.5h-10.8v11.1H154.4L154.4,105.6z
		 M143.6,125.8h-5.8V89h17.1c7.7,0,11.8,5.1,11.8,11.1c0,5.7-4.2,11.1-11.8,11.1h-11.3L143.6,125.8L143.6,125.8z M177.9,89v31.3H200
		v5.5h-27.9V89H177.9z M231.7,89v5.5h-21.1v9.5h19.5v5.5h-19.5v10.8h21.6v5.5h-27.4V89L231.7,89z M268.5,94.5H255v31.3h-5.8V94.5
		h-13.4V89h32.6V94.5z M299.8,89v5.5h-21.1v9.5h19.5v5.5h-19.5v10.8h21.6v5.5h-27.4V89L299.8,89z M312.8,89v31.3h22.1v5.5H307V89
		H312.8z M346,105.7L357.1,89h6.6l-14.7,21.9v15h-5.8v-15L328.4,89h7.1L346,105.7z M8.7,164.4h8.2c8.2,0,12.6-5.9,12.6-12.9
		c0-7.7-4.4-13.4-12.6-13.4H8.7L8.7,164.4L8.7,164.4z M2.9,132.8h14c11.9,0,18.4,7.8,18.4,18.7c0,10.4-6.7,18.2-18.4,18.2h-14V132.8
		L2.9,132.8z M41.9,169.7h5.8v-36.9h-5.8V169.7z M82.5,132.8v5.5H61.7v10.5h19.2v5.5H61.7v15.3h-5.8v-36.9L82.5,132.8z M114.9,132.8
		v5.5H94.1v10.5h19.2v5.5H94.1v15.3h-5.8v-36.9L114.9,132.8z M147.5,132.8v5.5h-21.1v9.5h19.5v5.5h-19.5v10.8H148v5.5h-27.4v-36.9
		L147.5,132.8z M171.8,148.9c4,0,6.3-1.9,6.3-5.3s-2.3-5.3-6.3-5.3h-11.3v10.5L171.8,148.9L171.8,148.9z M177.4,169.7
		c-0.5-0.9-0.8-1.9-1-3.1c-0.2-1.2-0.3-2.9-0.3-5.4c0-5.1-2.3-6.8-6.6-6.8h-9v15.3h-5.8v-36.9h17.6c7.4,0,11.8,4.4,11.8,10
		c0,4.7-2.7,8.1-7.4,9.7c3.6,1.4,5.6,4.1,5.8,8.7c0.1,2.2,0.3,3.7,0.4,4.8c0.2,1,0.7,1.9,1.4,2.7v0.8L177.4,169.7L177.4,169.7z
		 M218.2,132.8v5.5h-21.1v9.5h19.5v5.5h-19.5v10.8h21.6v5.5h-27.4v-36.9L218.2,132.8z M231.2,169.7h-5.8v-36.9h10.1l17.2,32.7v-32.7
		h5.8v36.9h-10.1l-17.2-32.6L231.2,169.7z M295.5,138.4h-13.4v31.3h-5.8v-31.3h-13.4v-5.5h32.6V138.4z M121.1,3.8v14.4h-2.6V1.4
		h14.4v16.8h-2.6V3.8L121.1,3.8z M150.2,9.8c0-3.6-2.6-6.1-6-6.1c-3.4,0-6,2.5-6,6.1c0,3.6,2.7,6.1,6,6.1
		C147.5,16,150.2,13.5,150.2,9.8 M153,9.8c0.1,4.7-4,8.7-8.8,8.6c-4.8,0.1-8.9-3.9-8.8-8.6c-0.1-4.7,4-8.7,8.8-8.6
		C149,1.1,153.1,5.1,153,9.8 M163.1,9c1.7,0,2.9-1,2.9-2.5c0-1.5-1.2-2.5-2.9-2.5h-4.9v5H163.1z M158.2,18.2h-2.6V1.4h7.8
		c3.5,0,5.4,2.3,5.4,5c0,2.6-1.9,5-5.4,5h-5.2V18.2z M180.5,11.8l-3.2-8.1l-3.2,8.1H180.5L180.5,11.8z M175.5,1.4h3.6l6.9,16.8h-3
		l-1.6-4.1h-8.3l-1.6,4.1h-3C168.5,18.2,175.5,1.4,175.5,1.4z M121.1,23.6V38h-2.6V21.2h14.4V38h-2.6V23.6H121.1z M150.2,29.6
		c0-3.6-2.6-6.1-6-6.1c-3.4,0-6,2.5-6,6.1c0,3.6,2.7,6.1,6,6.1C147.5,35.7,150.2,33.2,150.2,29.6 M153,29.6c0.1,4.7-4,8.7-8.8,8.6
		c-4.8,0.1-8.9-3.9-8.8-8.6c-0.1-4.7,4-8.7,8.8-8.6C149,20.9,153.1,24.9,153,29.6 M155.5,30.7h6.5v-2.3h-6.5V30.7z M174,35.6v-12h-5
		v3c0,2.1-0.1,3.9-0.4,5.2c-0.2,1.3-0.7,2.6-1.4,3.8H174z M162.5,35.6h1.7c0.7-0.9,1.2-1.8,1.5-2.7c0.3-0.9,0.5-1.7,0.6-2.7
		c0.1-0.9,0.1-2.1,0.1-3.7v-5.4h10.2v14.4h2v5h-2.4V38h-11.4v2.6h-2.4L162.5,35.6L162.5,35.6z M188.6,28.8c1.7,0,2.9-1,2.9-2.5
		c0-1.5-1.2-2.5-2.9-2.5h-4.9v5H188.6z M183.7,38H181V21.2h7.8c3.5,0,5.4,2.3,5.4,5c0,2.6-1.9,5-5.4,5h-5.2
		C183.7,31.3,183.7,38,183.7,38z M201.8,31.7l-6.6-10.4h3.2l4.9,8l5-8h3.1L200.8,38h-3.2L201.8,31.7z M216.1,23.7V38h-2.6V21.2H226
		v2.5L216.1,23.7z M241.8,29.6c0-3.6-2.6-6.1-6-6.1c-3.4,0-6,2.5-6,6.1c0,3.6,2.7,6.1,6,6.1C239.1,35.7,241.8,33.2,241.8,29.6
		 M244.6,29.6c0.1,4.7-4,8.7-8.8,8.6c-4.8,0.1-8.9-3.9-8.8-8.6c-0.1-4.7,4-8.7,8.8-8.6C240.6,20.9,244.7,24.9,244.6,29.6 M263.7,38
		V22.7L258.8,38h-4.1l-4.9-15.3V38h-2.6V21.2h4.9l4.7,14.8l4.7-14.8h4.9V38H263.7z M275.2,31.7l-6.6-10.4h3.2l4.9,8l5-8h3.1
		L274.2,38H271L275.2,31.7z"/>
</g>
</svg>
