<svg xmlns="http://www.w3.org/2000/svg" width="308" height="50" viewBox="0 0 308 50">
    <g fill="#000" fill-rule="evenodd">
        <path d="M126.5 30.219c.652-.83.979-2.234.979-4.215v-13c0-1.98-.327-3.387-.978-4.215-.652-.83-1.621-1.244-2.908-1.244h-3.377v23.918h3.377c1.287 0 2.256-.416 2.908-1.244m6.475-26.863c2.225 2.234 3.339 5.535 3.339 9.902V25.75c0 4.367-1.114 7.668-3.34 9.903-2.225 2.234-5.353 3.35-9.382 3.35h-12.238v-39h12.238c4.029 0 7.157 1.118 9.383 3.353M153.74 24.709l-2.615-18.992-2.59 18.992h5.204zM144.267.004h13.738l6.119 39h-8.482l-.913-7.008h-7.185l-.94 7.008h-8.48l6.143-39zM182.202 30.219c.651-.83.978-2.234.978-4.215v-13c0-1.98-.327-3.387-.978-4.215-.65-.83-1.62-1.244-2.907-1.244h-3.377v23.918h3.377c1.286 0 2.256-.416 2.907-1.244m6.475-26.863c2.225 2.234 3.338 5.535 3.338 9.902V25.75c0 4.367-1.113 7.668-3.338 9.903-2.226 2.234-5.354 3.35-9.382 3.35h-12.239v-39h12.24c4.027 0 7.155 1.118 9.381 3.353M209.442 24.709l-2.615-18.992-2.59 18.992h5.205zM199.97.004h13.737l6.119 39h-8.481l-.914-7.008h-7.185l-.94 7.008h-8.48l6.144-39zM251.711 32.965V13.709c0-1.96-.27-3.101-1.632-3.101-1.033 0-1.469.599-1.469 3.537v18.384c0 2.504.436 3.319 1.578 3.319 1.034 0 1.523-.98 1.523-2.883m-6.963 9.826v-1.285h3.862v1.012c0 1.687.436 2.123 1.47 2.123 1.25 0 1.631-.49 1.631-2.176v-5.582c-.436 1.957-1.36 2.557-3.046 2.557-2.72 0-4.08-1.524-4.08-6.856V14.36c0-1.958.163-3.482.436-4.515.652-2.121 1.903-2.774 3.807-2.774s2.883 1.034 3.372 2.774l.436-2.447h3.046v35.337c0 3.7-1.795 5.495-5.603 5.495-3.917 0-5.33-1.741-5.33-5.44M264.778 20.727v-7.78c0-1.74-.435-2.34-1.577-2.34-1.143 0-1.577.6-1.577 2.34v7.78h3.154zM263.2 39.44c-3.482 0-5.494-1.742-5.494-5.822v-20.89c0-3.915 2.12-5.71 5.494-5.71 3.699 0 5.549 1.85 5.549 5.71v11.317h-7.126v9.3c0 1.579.434 2.34 1.577 2.34 1.142 0 1.523-.706 1.523-2.23V26.33h4.026v7.398c0 4.025-1.96 5.713-5.55 5.713zM270.697 39.004V7.399h2.992l.436 2.773c.597-2.283 1.74-3.154 3.535-3.154 2.992 0 4.025 1.795 4.025 6.69v25.296h-4.025V13.219c0-1.904-.326-2.557-1.414-2.557-1.088 0-1.577.87-1.577 2.992v25.35h-3.972zM283.633 33.672V12.729c0-3.916 2.067-5.711 5.55-5.711 3.643 0 5.438 1.795 5.438 5.603v8.268h-3.97v-7.996c0-1.578-.328-2.231-1.469-2.231-1.034 0-1.524.762-1.524 2.285V33.4c0 1.359.381 2.285 1.524 2.285 1.141 0 1.47-.871 1.47-2.231V24.37h3.97v9.356c0 4.025-2.013 5.713-5.44 5.713-3.59 0-5.549-1.743-5.549-5.768M296.786 41.723h1.36c1.306 0 1.795-.271 1.958-2.012l.218-1.633-4.515-30.68h4.026l2.393 21.46 1.578-21.46h3.917l-3.537 33.075c-.435 4.133-1.577 5.22-5.657 5.22h-1.74v-3.97zM15.337.132v1.316h-4.95v2.507h4.575v1.317h-4.576v3.635H9.007V.132zM23.886 4.52c0-1.893-1.366-3.197-3.134-3.197-1.767 0-3.134 1.329-3.134 3.209 0 1.905 1.404 3.184 3.134 3.184s3.134-1.303 3.134-3.196m1.44 0c.052 2.469-2.067 4.563-4.575 4.512-2.507.05-4.625-2.043-4.575-4.512-.05-2.457 2.069-4.562 4.576-4.513 2.508-.05 4.626 2.056 4.575 4.513M30.955 3.955c.953 0 1.504-.45 1.504-1.253 0-.803-.551-1.254-1.504-1.254H28.26v2.507h2.695zm1.316 4.952a2.598 2.598 0 0 1-.238-.727c-.05-.276-.075-.702-.075-1.279 0-1.216-.551-1.63-1.567-1.63H28.26v3.636h-1.38V.132h4.2c1.768 0 2.82 1.04 2.82 2.382 0 1.115-.651 1.93-1.754 2.318.852.34 1.329.966 1.379 2.081.025.514.063.891.1 1.142.05.237.163.463.339.651v.201H32.27zM10.474 12.42c0 .802.89 1.179 2.244 1.442 2.018.388 3.02 1.166 3.02 2.569 0 1.505-1.391 2.633-3.421 2.633a4.848 4.848 0 0 1-2.357-.602c-.727-.413-1.241-1.103-1.554-2.093l1.316-.815c.313 1.416 1.253 2.194 2.607 2.194 1.19 0 1.968-.515 1.968-1.254 0-.701-.564-1.128-2.068-1.379-2.018-.35-3.134-1.14-3.134-2.682 0-1.291 1.24-2.394 3.07-2.394 1.468 0 2.709.777 3.198 2.131l-1.316.751c-.24-1.002-.915-1.566-2.006-1.566-.953 0-1.567.463-1.567 1.065M24.37 14.551c0-1.893-1.366-3.197-3.133-3.197s-3.134 1.33-3.134 3.21c0 1.904 1.404 3.183 3.134 3.183s3.134-1.303 3.134-3.196m1.44 0c.052 2.47-2.066 4.563-4.574 4.512-2.507.051-4.625-2.043-4.575-4.512-.05-2.457 2.068-4.563 4.575-4.513 2.508-.05 4.626 2.056 4.575 4.513M36.015 18.939v-8.01l-2.57 8.01h-2.13l-2.57-8.01v8.01h-1.379v-8.775h2.57l2.444 7.71 2.444-7.71h2.57v8.775zM45.815 10.164v1.316H40.8v2.257h4.638v1.316H40.8v2.57h5.14v1.316h-6.52v-8.775zM54.608 11.48H51.41v7.458h-1.38V11.48h-3.195v-1.316h7.772zM57.082 15.24v3.699h-1.379v-8.775h1.38v3.823h4.762v-3.823h1.38v8.775h-1.38V15.24zM65.238 18.939h1.379v-8.775h-1.379zM69.989 18.939H68.61v-8.775h2.394l4.087 7.784v-7.784h1.378v8.775h-2.394l-4.086-7.773zM78.038 14.551c-.038-2.52 1.918-4.563 4.388-4.513 1.14 0 2.08.288 2.795.852.727.565 1.203 1.304 1.442 2.22l-1.379.438c-.3-1.467-1.329-2.194-2.82-2.194-1.643 0-2.984 1.291-2.984 3.197 0 1.868 1.304 3.196 3.008 3.196 1.554 0 2.37-1.166 2.545-2.13h-3.798V14.3h5.49v4.637h-1.178v-1.867c-.627 1.328-1.693 1.992-3.184 1.992-2.47.038-4.363-1.917-4.325-4.512M13.08 27.842c.917 0 1.644-.263 2.182-.79.54-.526.878-1.178 1.016-1.968l1.253.502c-.451 2.03-2.043 3.509-4.45 3.509-2.645.038-4.475-1.967-4.45-4.512-.05-2.52 1.956-4.563 4.45-4.512 2.232 0 3.548 1.366 3.949 2.945l-1.254.564c-.263-1.316-1.203-2.256-2.695-2.256-1.704 0-3.008 1.29-3.008 3.259 0 2.044 1.229 3.259 3.008 3.259M26.155 24.583c0-1.893-1.367-3.197-3.134-3.197-1.768 0-3.134 1.329-3.134 3.209 0 1.905 1.404 3.184 3.134 3.184s3.134-1.303 3.134-3.196m1.441 0c.051 2.469-2.067 4.563-4.575 4.512-2.507.051-4.625-2.043-4.575-4.512-.05-2.457 2.068-4.563 4.575-4.513 2.508-.05 4.626 2.056 4.575 4.513M37.8 28.97v-8.01l-2.57 8.01H33.1l-2.57-8.01v8.01h-1.379v-8.775h2.57l2.444 7.71 2.444-7.71h2.57v8.775zM45.155 24.145c.89 0 1.504-.514 1.504-1.316 0-.803-.614-1.317-1.504-1.317h-2.569v2.633h2.57zm-2.569 4.826h-1.38v-8.775h4.074c1.831 0 2.821 1.216 2.821 2.633 0 1.366-1.003 2.632-2.82 2.632h-2.695v3.51zM50.791 20.195v7.458h5.265v1.317h-6.644v-8.775zM63.62 20.195v1.316h-5.015v2.257h4.638v1.316h-4.638v2.57h5.14v1.316h-6.519v-8.775zM72.412 21.511h-3.196v7.46h-1.38v-7.46H64.64v-1.316h7.77zM79.901 20.195v1.316h-5.014v2.257h4.638v1.316h-4.638v2.57h5.14v1.316h-6.519v-8.775zM83.03 20.195v7.458h5.266v1.317H81.65v-8.775zM91.52 24.182l2.632-3.986h1.567l-3.51 5.202v3.573H90.83v-3.573l-3.51-5.202h1.692zM10.386 37.749h1.944c1.943 0 3.008-1.404 3.008-3.071 0-1.843-1.04-3.197-3.008-3.197h-1.944v6.268zm-1.378-7.521h3.322c2.832 0 4.386 1.855 4.386 4.45 0 2.482-1.604 4.324-4.387 4.324H9.008v-8.774zM18.31 39.002h1.379v-8.775H18.31zM28.012 30.227v1.316h-4.95v2.507h4.575v1.317H23.06v3.635h-1.378v-8.775zM35.749 30.227v1.316h-4.951v2.507h4.576v1.317h-4.576v3.635h-1.38v-8.775zM43.55 30.227v1.316h-5.015V33.8h4.638v1.316h-4.638v2.57h5.14v1.316h-6.519v-8.775zM49.373 34.05c.953 0 1.505-.45 1.505-1.253 0-.803-.552-1.254-1.505-1.254h-2.694v2.507h2.694zm1.317 4.952a2.577 2.577 0 0 1-.238-.727c-.051-.276-.076-.703-.076-1.279 0-1.216-.551-1.63-1.566-1.63h-2.131v3.636h-1.38v-8.775h4.2c1.767 0 2.82 1.04 2.82 2.382 0 1.115-.652 1.93-1.755 2.318.853.34 1.33.966 1.379 2.081.026.514.063.891.1 1.142.05.237.163.463.339.651v.201H50.69zM60.432 30.227v1.316h-5.014V33.8h4.638v1.316h-4.638v2.57h5.139v1.316h-6.518v-8.775zM63.561 39.002h-1.379v-8.775h2.394l4.087 7.785v-7.785h1.378v8.775h-2.394l-4.086-7.772zM78.91 31.543h-3.197v7.459h-1.379v-7.459h-3.196v-1.316h7.772zM235.432 30.026l1.43-21.091 1.543 21.09h-2.973zM234.436 0l-3.807 39.004h4.116l.401-5.09h3.545l.401 5.09h4.231L239.243 0h-4.807zM0 39.002h1.379V.005H0z"/>
    </g>
</svg>
